<?xml version="1.0" encoding="UTF-8"?>
<svg width="554px" height="72px" viewBox="0 0 554 72" version="1.1" xmlns="http://www.w3.org/2000/svg" xmlns:xlink="http://www.w3.org/1999/xlink">
    <!-- Generator: Sketch 52.5 (67469) - http://www.bohemiancoding.com/sketch -->
    <title>logo</title>
    <desc>Created with Sketch.</desc>
    <g id="Symbols" stroke="none" stroke-width="1" fill="none" fill-rule="evenodd">
        <g id="cryptopago-logo" transform="translate(-85.000000, -91.000000)">
            <g id="logo" transform="translate(85.000000, 91.000000)">
                <path d="M28.9896432,46.1679389 L27.1392405,55.7470011 C27.1392405,55.7470011 23.2842347,56.7677208 18.7353279,56.7677208 C7.01611046,56.7677208 0,49.8582334 0,38.2377317 C0,28.4231189 4.93440736,11.9345692 23.9781357,11.9345692 C30.9171461,11.9345692 35.1576524,14.1330425 35.1576524,14.1330425 L33.3072496,23.7121047 L32.6904487,23.7121047 C32.6904487,23.7121047 28.9896432,21.5921483 24.9804372,21.5921483 C15.9597238,21.5921483 13.3383199,31.8778626 13.3383199,37.6095965 C13.3383199,43.8124318 16.4223245,47.2671756 21.8964326,47.2671756 C24.9804372,47.2671756 28.3728423,46.1679389 28.3728423,46.1679389 L28.9896432,46.1679389 Z M71.034906,24.5757906 L70.4181051,24.5757906 C70.4181051,24.5757906 68.1822017,23.3980371 65.1752973,23.3980371 C59.3156885,23.3980371 57.8507863,28.0305344 56.925585,32.7415485 L52.2995781,56.2966194 L39.3467588,56.2966194 L47.9048715,12.5627045 L57.0026851,12.5627045 L57.9278864,20.8854962 C59.7782892,14.9182116 63.633295,12.2486369 68.8761028,12.2486369 C71.4204066,12.2486369 73.2708093,12.8767721 73.2708093,12.8767721 L71.034906,24.5757906 Z M121.329881,12.5627045 L98.6624473,54.9618321 C93.6509398,64.3838604 88.8707327,71.9214831 77.6141159,71.9214831 C73.1423092,71.9214831 69.6728041,70.7437296 69.6728041,70.7437296 L71.3690066,61.2431843 L71.9087074,61.2431843 C71.9087074,61.2431843 73.7591101,62.263904 76.5347143,62.263904 C81.7775221,62.263904 84.2447258,58.6521265 86.7119295,53.7055616 L79.2332183,12.5627045 L92.3402378,12.5627045 L96.1181435,40.2791712 L109.070963,12.5627045 L121.329881,12.5627045 Z M118.888378,71.3718648 L130.376295,12.5627045 L139.242808,12.5627045 L139.936709,20.0218103 C142.326812,14.6826609 146.875719,11.6205016 153.197929,11.6205016 C162.681243,11.6205016 167.924051,18.3729553 167.924051,29.2868048 C167.924051,40.9073064 161.910242,57.0817884 146.798619,57.0817884 C139.936709,57.0817884 136.775604,53.7840785 135.850403,49.0730643 L131.609896,71.3718648 L118.888378,71.3718648 Z M148.649022,21.1210469 C140.78481,21.1210469 138.009206,32.1919302 138.009206,38.7873501 C138.009206,44.0479826 139.782509,47.6597601 144.331415,47.6597601 C152.581128,47.6597601 154.894131,35.9607415 154.894131,29.91494 C154.894131,24.7328244 153.197929,21.1210469 148.649022,21.1210469 Z M201.873801,0 L199.252397,13.1908397 L210.971615,13.1908397 L209.121212,22.612868 L197.479095,22.612868 C194.24089,38.1592148 193.855389,40.6717557 193.855389,42.3991276 C193.855389,45.3827699 195.011891,47.1101418 198.866897,47.1101418 C201.411201,47.1101418 203.955504,46.3249727 203.955504,46.3249727 L204.572305,46.3249727 L202.721903,55.825518 C202.721903,55.825518 199.869198,56.610687 195.628692,56.610687 C184.140775,56.610687 181.13387,50.8789531 181.13387,43.9694656 C181.13387,41.221374 181.596471,38.2377317 184.757576,22.612868 L177.664365,22.612868 L179.514768,13.1908397 L186.530878,13.1908397 L188.689682,2.11995638 L201.873801,0 Z M239.138857,11.5419847 C250.703874,11.5419847 257.642885,17.823337 257.642885,30.1504907 C257.642885,38.9443839 254.096279,57.3173391 234.28155,57.3173391 C222.639432,57.3173391 215.700422,51.0359869 215.700422,38.7873501 C215.700422,29.8364231 219.324127,11.5419847 239.138857,11.5419847 Z M238.367856,20.4929117 C235.515152,20.4929117 233.510549,21.827699 231.891446,24.6543075 C229.424242,28.9727372 228.421941,35.3326063 228.421941,39.4154853 C228.421941,44.9116685 230.272344,48.3664122 234.898351,48.3664122 C237.673955,48.3664122 239.909858,47.1101418 241.528961,44.2050164 C243.687764,40.436205 244.921366,33.6837514 244.921366,29.3653217 C244.921366,24.0261723 243.070963,20.4929117 238.367856,20.4929117 Z M261.754891,71.3718648 L273.242808,12.5627045 L282.109321,12.5627045 L282.803222,20.0218103 C285.193326,14.6826609 289.742232,11.6205016 296.064442,11.6205016 C305.547756,11.6205016 310.790564,18.3729553 310.790564,29.2868048 C310.790564,40.9073064 304.776755,57.0817884 289.665132,57.0817884 C282.803222,57.0817884 279.642117,53.7840785 278.716916,49.0730643 L274.47641,71.3718648 L261.754891,71.3718648 Z M291.515535,21.1210469 C283.651323,21.1210469 280.875719,32.1919302 280.875719,38.7873501 C280.875719,44.0479826 282.649022,47.6597601 287.197929,47.6597601 C295.447641,47.6597601 297.760644,35.9607415 297.760644,29.91494 C297.760644,24.7328244 296.064442,21.1210469 291.515535,21.1210469 Z M355.996931,12.5627045 L365.326045,12.5627045 L359.543537,41.6924755 C358.926736,44.9901854 358.926736,47.4242094 361.70234,47.4242094 C362.704641,47.4242094 363.706943,47.1101418 363.706943,47.1101418 L364.323744,47.1101418 L362.550441,56.1395856 C362.550441,56.1395856 359.929037,56.8462377 356.613732,56.8462377 C349.597622,56.8462377 347.824319,53.6270447 347.747219,48.523446 C345.280015,54.0196292 340.114308,57.1603053 333.637898,57.1603053 C323.537783,57.1603053 319.143076,49.387132 319.143076,39.7295529 C319.143076,29.91494 323.691983,11.6990185 340.422708,11.6990185 C346.976218,11.6990185 350.754124,14.525627 352.450326,20.1003272 L355.996931,12.5627045 Z M338.418105,47.738277 C346.359417,47.738277 349.057921,36.5103599 349.057921,29.9934569 C349.057921,24.7328244 347.284618,21.1210469 342.735712,21.1210469 C334.485999,21.1210469 332.172996,32.9770992 332.172996,38.9443839 C332.172996,44.1264995 333.946298,47.738277 338.418105,47.738277 Z M420.015727,12.5627045 L412.845416,49.4656489 C411.149214,58.259542 407.756809,72 387.093978,72 C377.610664,72 370.980054,69.0948746 370.980054,69.0948746 L373.061757,58.9661941 L373.678558,58.9661941 C373.678558,58.9661941 380.232068,62.263904 387.171078,62.263904 C395.26659,62.263904 399.198696,57.8669575 400.586498,47.8953108 C398.119294,51.8211559 394.495589,54.3336968 388.71308,54.3336968 C379.306866,54.3336968 374.141159,47.738277 374.141159,37.6881134 C374.141159,27.8735005 379.075566,11.6990185 394.803989,11.6990185 C401.511699,11.6990185 405.675106,14.6041439 407.140008,20.1003272 L410.686613,12.5627045 L420.015727,12.5627045 Z M393.647488,45.4612868 C400.971998,45.4612868 403.824703,35.8037077 403.824703,29.6793893 C403.824703,23.7906216 401.280399,20.8854962 397.116993,20.8854962 C389.252781,20.8854962 387.016878,31.4852781 387.016878,36.8244275 C387.016878,42.4776445 389.561181,45.4612868 393.647488,45.4612868 Z M450.495972,11.5419847 C462.06099,11.5419847 469,17.823337 469,30.1504907 C469,38.9443839 465.453395,57.3173391 445.638665,57.3173391 C433.996548,57.3173391 427.057537,51.0359869 427.057537,38.7873501 C427.057537,29.8364231 430.681243,11.5419847 450.495972,11.5419847 Z M449.724971,20.4929117 C446.872267,20.4929117 444.867664,21.827699 443.248562,24.6543075 C440.781358,28.9727372 439.779056,35.3326063 439.779056,39.4154853 C439.779056,44.9116685 441.629459,48.3664122 446.255466,48.3664122 C449.03107,48.3664122 451.266974,47.1101418 452.886076,44.2050164 C455.044879,40.436205 456.278481,33.6837514 456.278481,29.3653217 C456.278481,24.0261723 454.428078,20.4929117 449.724971,20.4929117 Z" id="cryptopago" fill="#FFFFFF"></path>
                <g id="icon" transform="translate(488.000000, 4.000000)">
                    <polygon id="Path-3" stroke="#E1572F" fill="#E1572F" stroke-linecap="round" stroke-linejoin="round" transform="translate(24.620949, 31.516034) rotate(86.000000) translate(-24.620949, -31.516034) " points="54.4082763 9.07619768 -5.16637858 9.08662579 24.6093468 53.9558713"></polygon>
                    <polygon id="Path-5" fill="#F8E71C" points="16.2879979 42.260473 31.2018392 50.7430743 48.7465438 42.260473 46.6604674 12.2785051 38.4176576 4.14292652 31.2018392 9.08108108 14.9677522 41.565625"></polygon>
                    <polygon id="Path-4" stroke-opacity="0.74" stroke="#FFFFFF" fill-opacity="0.67" fill="#FFFFFF" stroke-linecap="round" stroke-linejoin="round" points="5.61290323 62.4391142 35.6721713 2.61081081 65.739313 32.5249625"></polygon>
                </g>
            </g>
        </g>
    </g>
</svg>